<svg xmlns="http://www.w3.org/2000/svg" width="155.383" height="22.369" viewBox="0 0 155.383 22.369">
  <g id="PubMatic_Logo" transform="translate(0 -0.4)">
    <path id="Path_1" data-name="Path 1" d="M103.545.4H95.671a.863.863,0,0,0-.871.871V21.513a.863.863,0,0,0,.871.871H98.04a.863.863,0,0,0,.871-.871h0v-.488h0V15h4.878c4.355,0,7.421-2.822,7.421-7.177C111.21,3.57,108.7.4,103.545.4m-.523,11.114H98.911V3.849h3.972c2.369,0,4.007.906,4.007,3.937,0,2.195-1.254,3.728-3.867,3.728m24.039-3.136h0V7.647a.863.863,0,0,0-.871-.871H124.17a.863.863,0,0,0-.871.871v.732h0v6.794c0,1.881-.871,3.972-3.693,3.972-1.916,0-2.787-.906-2.787-3.066V7.647a.863.863,0,0,0-.871-.871h-2.021a.863.863,0,0,0-.871.871h0V8h0v9.128c0,4.529,3.066,5.644,5.714,5.644a5.524,5.524,0,0,0,4.494-1.916h.07v.627h0v.035a.863.863,0,0,0,.871.871h2.021a.863.863,0,0,0,.871-.871h0v-.035h0Zm10.731-1.986a6.288,6.288,0,0,0-4.46,1.707V2.8h0V1.271A.863.863,0,0,0,132.462.4h-2.021a.863.863,0,0,0-.871.871h0V2.8h0V19.039h0v2.474a.863.863,0,0,0,.871.871h2.021a.863.863,0,0,0,.871-.871h0v-.627h.07a5.142,5.142,0,0,0,4.39,1.881c4.041,0,6.829-3.693,6.829-8.187s-2.787-8.187-6.829-8.187m-.836,12.926c-2.857,0-3.693-2.474-3.693-4.738s.836-4.738,3.693-4.738,3.658,2.474,3.693,4.738c-.035,2.265-.871,4.738-3.693,4.738" transform="translate(-61.772 0)" fill="#4fc8ed"/>
    <path id="Path_2" data-name="Path 2" d="M265.39,21.3h0v.209a.863.863,0,0,1-.871.871h-2.23a.863.863,0,0,1-.871-.871h0V4.267h0V4.058h-.07l-1.777,7.6h0l-1.5,6.376-.8,3.414h0l-.035.1c-.1.488-.383.871-.871.871h-2.543a1,1,0,0,1-.871-.871v-.035h0L248.876,4.267h-.1V21.339h0v.174a.863.863,0,0,1-.871.871h-2.23a.863.863,0,0,1-.871-.871h0V1.236h0A.878.878,0,0,1,245.671.4h4.773a.857.857,0,0,1,.8.627h0v.1l3.867,16.34h.07l3.832-16.34a.86.86,0,0,1,.836-.7h4.6a.863.863,0,0,1,.871.871h0ZM291.416,6.741H289.5V2.107a.863.863,0,0,0-.871-.871h-2.021a.863.863,0,0,0-.871.871h0V6.741h-1.916a.7.7,0,0,0-.7.7v1.6a.7.7,0,0,0,.7.7h1.916V21.513a.863.863,0,0,0,.871.871h2.021a.863.863,0,0,0,.871-.871h0V9.772h1.916a.7.7,0,0,0,.7-.7v-1.6a.7.7,0,0,0-.7-.732m6.654.941a.863.863,0,0,0-.871-.871h-1.986a.893.893,0,0,0-.906.871h0V21.513a.863.863,0,0,0,.871.871h1.986a.863.863,0,0,0,.871-.871h0Zm.035-5.365a1.937,1.937,0,0,0-3.867.244,1.921,1.921,0,0,0,1.951,1.812A1.987,1.987,0,0,0,298.1,2.316m15.782,14.145h-1.6c-.592,0-.941.383-1.254.941l-.035.07a3.4,3.4,0,0,1-3,1.812c-2.717,0-4.076-2.3-4.076-4.738S305.282,9.807,308,9.807a3.536,3.536,0,0,1,3,1.812l.07.139c.314.557.662.941,1.254.941h1.6a.851.851,0,0,0,.941-1.115v-.035a7.232,7.232,0,0,0-.662-1.707l-.035-.1a6.48,6.48,0,0,0-6.1-3.345c-5.087,0-8.013,3.519-8.013,8.187s2.927,8.187,8.013,8.187a6.541,6.541,0,0,0,6.1-3.345l.035-.1a7.866,7.866,0,0,0,.662-1.707v-.035a.884.884,0,0,0-.976-1.115M281.661,19.6h0v1.916a.863.863,0,0,1-.871.871h-2.021a.863.863,0,0,1-.871-.871V20.99h0a7.776,7.776,0,0,1-5.121,1.777c-2.961,0-5.331-1.881-5.331-4.912s2.439-4.425,4.773-4.878l1.568-.314a35.885,35.885,0,0,0,4.076-.941V11.27c0-1.533-1.324-1.986-2.961-1.986-1.916,0-2.752.453-2.927,1.916h0a.831.831,0,0,1-.209.383v.035h0a1.036,1.036,0,0,1-.7.279l-1.986-.1c-.7-.035-.836-.418-.8-.906v-.035h0c.348-3.205,3.414-4.459,6.654-4.459,3.379,0,6.724.7,6.724,5.121ZM277.9,14.58a6.577,6.577,0,0,1-1.777.557l-2.09.418c-1.428.279-2.613.662-2.613,2.16,0,1.185,1.08,1.951,2.439,1.951,1.777,0,4.007-.871,4.007-2.857Z" transform="translate(-159.512)" fill="#231f20"/>
    <rect id="Rectangle_2" data-name="Rectangle 2" width="22.019" height="22.019" transform="translate(0 0.4)" fill="#4fc8ed"/>
  </g>
</svg>
